<?xml version="1.0" encoding="utf-8"?>
<svg version="1.0" xmlns="http://www.w3.org/2000/svg" width="300.000000pt" height="300.000000pt" viewBox="0 0 300.000000 300.000000" preserveAspectRatio="xMidYMid meet">
  <g transform="translate(0.000000,300.000000) scale(0.100000,-0.100000)" fill="#000000" stroke="none">
    <path d="M125 2085 l-25 -24 0 -361 0 -361 25 -24 24 -25 1340 0 c737 0 1347 3 1356 6 42 16 45 46 45 409 l0 347 -29 29 -29 29 -1342 0 -1341 0 -24 -25z m2705 -35 c19 -19 20 -33 20 -348 0 -280 -2 -331 -16 -350 l-15 -22 -1324 0 c-1190 0 -1325 2 -1339 16 -14 13 -16 59 -16 351 0 299 2 338 17 355 15 17 70 18 1335 18 1305 0 1318 0 1338 -20z" style="fill: rgb(253, 9, 9);"/>
    <path d="M2014 1917 c-38 -22 -55 -40 -68 -72 -8 -17 -26 -44 -41 -60 -25 -25 -34 -27 -79 -23 -59 6 -76 2 -76 -18 0 -11 18 -14 79 -14 44 0 88 -3 98 -7 16 -6 16 -5 4 10 -20 26 -7 45 41 55 30 7 35 10 17 11 -25 1 -26 2 -15 36 7 24 21 40 42 50 36 17 120 20 129 5 3 -5 28 -10 56 -10 l49 0 0 -35 c0 -19 5 -35 10 -35 7 0 6 -8 -2 -22 -19 -36 -18 -48 5 -48 l22 -1 -21 -17 c-11 -10 -19 -23 -16 -30 2 -7 -1 -19 -8 -27 -9 -10 -7 -16 7 -24 17 -10 17 -10 0 -11 -16 0 -17 -2 -3 -15 26 -26 34 -16 32 40 -2 46 1 56 17 61 13 4 15 9 8 18 -6 7 -8 16 -4 19 3 4 -2 7 -11 7 -10 0 -16 6 -14 13 6 16 206 23 222 7 7 -7 3 -10 -14 -10 -33 0 -13 -16 30 -24 21 -4 30 -3 21 3 -17 11 3 26 22 15 8 -5 8 -2 -2 9 -12 16 -8 17 48 17 91 0 98 -13 37 -74 -27 -27 -44 -52 -38 -54 7 -2 12 -10 12 -18 0 -8 8 -18 18 -21 9 -4 28 -15 41 -25 21 -16 22 -18 5 -19 -11 0 -13 -3 -6 -6 6 -2 12 -13 12 -24 0 -17 -8 -19 -60 -19 -33 0 -60 4 -60 9 0 12 -29 41 -41 41 -5 0 -14 -11 -19 -25 -9 -25 -11 -25 -121 -25 l-111 0 7 31 c6 24 4 30 -6 27 -8 -3 -14 -17 -14 -31 1 -26 -2 -27 -50 -27 -27 0 -56 4 -64 9 -15 10 -6 51 11 51 6 0 1 9 -12 20 -13 11 -35 20 -49 19 l-26 0 23 -10 c13 -5 20 -13 17 -19 -3 -5 -1 -10 4 -10 21 0 11 -18 -14 -24 -16 -4 -22 -11 -19 -21 5 -12 -4 -15 -44 -15 -77 0 -111 20 -57 34 26 7 35 26 13 26 -9 0 -8 3 2 10 12 7 10 11 -10 19 -22 8 -19 10 23 10 40 1 46 3 35 15 -7 7 -17 13 -23 13 -45 0 -53 4 -48 24 5 16 2 20 -11 18 -9 -2 -16 -8 -16 -14 1 -5 -7 -12 -17 -16 -17 -7 -17 -8 0 -8 9 -1 17 -8 17 -16 0 -12 -17 -15 -91 -15 l-91 0 4 -50 3 -50 -50 0 c-69 0 -75 6 -69 65 8 81 4 110 -17 110 -21 0 -23 -37 -3 -52 16 -12 16 -13 1 -13 -11 0 -17 -8 -17 -24 0 -13 -6 -27 -12 -29 -9 -4 -8 -6 2 -6 9 -1 15 -11 15 -26 0 -23 -3 -25 -50 -25 -58 0 -78 10 -70 32 4 11 0 18 -12 21 -15 4 -15 5 -1 6 12 1 15 8 12 26 -4 21 0 25 18 26 l23 0 -22 11 c-14 7 -21 19 -20 31 3 31 -22 32 -34 1 -6 -17 -6 -30 -1 -32 12 -4 2 -55 -12 -64 -8 -6 -8 -8 0 -8 7 0 14 -11 16 -24 l5 -24 -109 -1 c-69 -1 -108 2 -108 9 0 5 5 10 12 10 6 0 8 3 5 6 -4 4 -18 -1 -31 -10 -42 -27 -122 -17 -147 18 -4 5 -27 -1 -51 -13 -54 -26 -149 -29 -172 -6 -8 8 -21 15 -28 15 -10 0 -9 3 2 10 21 13 7 22 -24 14 l-27 -6 37 -33 c54 -48 125 -58 209 -29 40 13 50 13 68 1 17 -11 59 -13 192 -10 94 2 186 3 205 2 19 -1 45 -2 58 -1 12 0 46 0 75 0 123 -1 128 0 142 19 8 10 15 28 15 40 0 29 4 30 85 34 l70 4 -3 -36 c-2 -24 3 -41 14 -50 20 -16 119 -15 140 1 11 10 17 10 28 1 21 -17 331 -21 372 -5 20 7 37 8 47 2 27 -15 122 -15 140 1 28 22 21 73 -13 106 -16 16 -30 34 -30 39 0 6 14 31 30 55 27 39 29 47 17 65 -20 29 -71 40 -125 26 -37 -9 -54 -8 -97 5 -48 15 -51 19 -47 45 6 44 -27 70 -87 70 -28 0 -53 -5 -57 -11 -4 -7 -26 -9 -63 -5 -122 14 -176 15 -197 3z m374 -57 l-3 -40 -52 0 c-28 0 -54 3 -56 8 -3 4 -2 22 0 40 5 32 6 32 59 32 l54 0 -2 -40z" style="fill: rgb(253, 9, 9);"/>
    <path d="M482 1887 c-12 -13 -22 -30 -22 -39 0 -10 -13 -18 -40 -22 -26 -4 -54 -18 -76 -39 -32 -29 -36 -40 -46 -109 -11 -76 -11 -78 17 -114 43 -56 67 -62 253 -59 148 1 166 4 178 20 8 10 14 27 14 37 0 10 4 18 10 18 5 0 7 6 4 14 -4 11 0 13 15 9 11 -3 26 1 34 8 11 11 10 17 -12 36 l-26 24 32 -6 c18 -4 40 -2 50 4 14 8 9 10 -27 11 -35 0 -42 3 -30 11 12 9 12 10 -3 5 -10 -3 -30 -6 -43 -6 -14 0 -22 -4 -19 -10 3 -5 1 -10 -4 -10 -15 0 -14 -17 2 -32 12 -10 10 -15 -7 -30 -12 -9 -16 -17 -11 -18 6 0 10 -12 9 -27 -1 -27 -4 -28 -55 -31 -42 -3 -56 1 -68 15 -13 17 -13 17 -7 0 5 -17 -2 -18 -108 -15 -69 3 -120 9 -128 16 -8 6 -19 8 -23 4 -5 -4 -5 1 -2 11 4 12 1 17 -11 18 -9 1 -1 5 18 9 l35 7 -45 2 c-44 3 -44 3 -18 15 23 10 25 13 11 22 -13 8 -14 14 -4 32 10 19 9 22 -6 23 -15 0 -15 2 -3 7 8 4 15 13 16 20 1 6 2 18 3 26 2 19 47 47 79 48 15 0 42 -3 61 -7 23 -5 31 -4 27 4 -4 6 -2 11 4 11 6 0 3 12 -8 28 -16 22 -17 29 -6 40 16 14 124 16 124 2 0 -5 -5 -10 -11 -10 -7 0 -5 -10 5 -25 9 -14 14 -30 11 -35 -4 -6 14 -10 44 -10 30 0 51 -5 53 -12 4 -10 10 -10 32 0 15 6 41 12 58 12 25 0 29 -3 25 -20 -3 -14 0 -20 11 -20 8 0 12 3 8 7 -4 4 15 14 42 23 56 18 149 13 144 -8 -3 -17 67 -19 78 -2 14 21 163 29 186 10 8 -8 14 -8 19 0 3 5 29 10 57 10 40 0 49 -3 44 -15 -4 -11 1 -15 19 -15 14 0 24 5 22 12 -1 7 16 15 43 19 35 5 50 2 67 -11 12 -10 19 -20 15 -24 -3 -4 2 -4 13 0 10 4 27 16 37 26 18 18 71 16 93 -3 5 -5 15 -9 22 -9 24 0 13 18 -19 33 -27 12 -75 14 -243 13 -115 -1 -228 1 -250 5 -29 5 -55 1 -100 -15 -57 -20 -61 -20 -94 -4 -28 14 -59 16 -190 14 -86 -2 -168 1 -183 6 -15 6 -31 22 -39 41 -17 42 -25 47 -85 47 -40 0 -55 -5 -72 -23z" style="fill: rgb(253, 9, 9);"/>
    <path d="M2104 1799 c26 -6 43 -6 50 1 7 7 -6 10 -39 9 l-50 -1 39 -9z" style="fill: rgb(253, 9, 9);"/>
    <path d="M1065 1740 c-16 -7 -16 -9 -4 -9 18 -1 33 -27 23 -42 -7 -12 41 -11 109 2 78 16 62 29 -28 22 -74 -6 -88 0 -63 25 15 15 -5 16 -37 2z" style="fill: rgb(253, 9, 9);"/>
    <path d="M2413 1733 c4 -6 0 -13 -8 -17 -8 -3 -15 -12 -15 -20 0 -8 -6 -17 -12 -19 -10 -4 -10 -6 0 -6 8 -1 12 -17 12 -46 0 -39 3 -45 21 -45 17 0 20 5 16 26 -2 15 2 31 10 40 13 13 13 18 -1 40 -9 13 -14 29 -11 34 3 5 0 12 -6 16 -7 4 -9 3 -6 -3z" style="fill: rgb(253, 9, 9);"/>
    <path d="M936 1714 c-9 -23 -8 -24 19 -24 23 0 24 2 15 20 -13 24 -26 26 -34 4z" style="fill: rgb(253, 9, 9);"/>
    <path d="M455 1700 c-11 -5 -14 -9 -7 -9 9 -1 10 -6 3 -19 -17 -31 5 -52 52 -51 23 1 32 4 20 6 -14 3 -23 12 -23 23 0 10 -8 21 -17 23 -15 4 -14 5 3 6 11 0 21 8 21 16 0 16 -21 18 -52 5z" style="fill: rgb(253, 9, 9);"/>
    <path d="M2080 1679 c0 -16 5 -20 27 -17 17 2 29 10 31 21 3 13 -3 17 -27 17 -25 0 -31 -4 -31 -21z" style="fill: rgb(253, 9, 9);"/>
    <path d="M1325 1681 c-6 -5 -19 -11 -30 -14 -18 -4 -17 -5 3 -6 13 0 20 -5 17 -11 -4 -6 5 -10 22 -9 15 1 21 3 12 6 -11 3 -15 11 -12 24 6 21 2 24 -12 10z" style="fill: rgb(253, 9, 9);"/>
    <path d="M1190 1625 c-7 -9 -10 -19 -6 -22 8 -9 38 9 44 25 5 17 -23 15 -38 -3z" style="fill: rgb(253, 9, 9);"/>
    <path d="M948 1623 c-32 -8 -20 -26 13 -19 17 3 51 6 75 6 24 0 44 5 44 10 0 10 -98 12 -132 3z" style="fill: rgb(253, 9, 9);"/>
  </g>
</svg>